<svg aria-hidden="true" style="position: absolute; width: 0; height: 0; overflow: hidden;" version="1.1" xmlns="http://www.w3.org/2000/svg" xmlns:xlink="http://www.w3.org/1999/xlink">
<defs>

<symbol id="burger" viewBox="0 0 48 32">
    <path d="M0 5.333v-5.333h48v5.333h-48zM0 18.667h48v-5.333h-48v5.333zM0 32h48v-5.333h-48v5.333z"></path>
</symbol>
<symbol id="close" viewBox="0 0 32 32">
    <path d="M26.667 7.303l-1.97-1.97-7.808 7.808-7.808-7.808-1.97 1.97 7.808 7.808-7.808 7.808 1.97 1.97 7.808-7.808 7.808 7.808 1.97-1.97-7.808-7.808 7.808-7.808z"></path>
</symbol>

<symbol id="arrow" viewBox="0 0 32 32">
    <path d="M19.414 27.414l10-10c0.781-0.781 0.781-2.047 0-2.828l-10-10c-0.781-0.781-2.047-0.781-2.828 0s-0.781 2.047 0 2.828l6.586 6.586h-19.172c-1.105 0-2 0.895-2 2s0.895 2 2 2h19.172l-6.586 6.586c-0.39 0.39-0.586 0.902-0.586 1.414s0.195 1.024 0.586 1.414c0.781 0.781 2.047 0.781 2.828 0z"></path>
</symbol>

<symbol id="vector" viewBox="0 0 26 32">
    <path fill="none" stroke="#d41443" style="stroke: var(--color1, #d41443)" stroke-linejoin="round" stroke-linecap="round" stroke-miterlimit="4" stroke-width="6.4" d="M5.172 3.2l14.169 12.8-14.169 12.8"></path>
</symbol>
<symbol id="vector-white" viewBox="0 0 26 32">
    <path fill="none" stroke="#d41443" style="stroke: var(--color1, #fff)" stroke-linejoin="round" stroke-linecap="round" stroke-miterlimit="4" stroke-width="6.4" d="M5.172 3.2l14.169 12.8-14.169 12.8"></path>
</symbol>

<symbol id="home" viewBox="0 0 35 32">
    <path  d="M34.253 15.613c0.599-0.659 0.541-1.669-0.129-2.255l-14.772-12.926c-0.671-0.586-1.745-0.574-2.402 0.028l-14.822 13.587c-0.656 0.602-0.689 1.611-0.071 2.252l0.372 0.387c0.617 0.642 1.613 0.718 2.224 0.17l1.108-0.992v14.523c0 0.891 0.722 1.613 1.612 1.613h5.778c0.89 0 1.612-0.721 1.612-1.613v-10.16h7.37v10.16c-0.013 0.89 0.624 1.612 1.515 1.612h6.123c0.89 0 1.613-0.722 1.613-1.613v-14.318c0 0 0.306 0.268 0.683 0.6s1.168 0.066 1.767-0.594l0.42-0.462z"></path>
</symbol>

<symbol id="facebook" viewBox="0 0 32 32">
    <path d="M16 32c8.837 0 16-7.163 16-16s-7.163-16-16-16c-8.837 0-16 7.163-16 16s7.163 16 16 16z"></path>
    <path style="fill: var(--color2, #fff)" d="M20.446 15.982h-2.61v9.619h-3.955v-9.619h-1.881v-3.38h1.881v-2.187c0-1.564 0.739-4.014 3.99-4.014l2.929 0.012v3.281h-2.125c-0.349 0-0.839 0.175-0.839 0.921v1.989h2.955l-0.346 3.377z"></path>
</symbol>
<symbol id="github" viewBox="0 0 32 32">
    <path  d="M32 16c0 8.837-7.163 16-16 16s-16-7.163-16-16c0-8.837 7.163-16 16-16s16 7.163 16 16z"></path>
    <path fill="#fff" style="fill: var(--color2, #fff)" d="M16 6.588c-5.169 0-9.412 4.242-9.412 9.412 0 4.411 3.095 8.419 7.206 9.412v-3.114c-0.407 0.089-0.782 0.092-1.197-0.030-0.556-0.164-1.008-0.535-1.344-1.1-0.214-0.361-0.593-0.752-0.988-0.723l-0.097-1.099c0.855-0.073 1.595 0.521 2.034 1.259 0.195 0.328 0.419 0.52 0.708 0.605 0.278 0.082 0.578 0.043 0.926-0.080 0.088-0.698 0.407-0.959 0.648-1.326v-0.001c-2.451-0.366-3.428-1.666-3.816-2.693-0.514-1.363-0.238-3.066 0.671-4.142 0.018-0.021 0.050-0.076 0.037-0.114-0.417-1.258 0.091-2.299 0.11-2.41 0.481 0.142 0.559-0.143 2.089 0.786l0.264 0.159c0.111 0.066 0.076 0.028 0.186 0.020 0.639-0.173 1.312-0.269 1.975-0.278 0.668 0.009 1.337 0.104 2.002 0.285l0.086 0.009c-0.007-0.001 0.023-0.005 0.075-0.036 1.911-1.157 1.842-0.779 2.355-0.946 0.019 0.111 0.519 1.169 0.107 2.411-0.056 0.171 1.657 1.739 0.708 4.256-0.388 1.027-1.365 2.328-3.816 2.693v0.001c0.314 0.479 0.692 0.734 0.69 1.722v3.887c4.111-0.993 7.206-5 7.206-9.412 0-5.169-4.242-9.412-9.412-9.412v0z"></path>
</symbol>
<symbol id="telegram" viewBox="0 0 32 32">
    <path   d="M32 16c0 8.837-7.163 16-16 16s-16-7.163-16-16c0-8.837 7.163-16 16-16s16 7.163 16 16z"></path>
    <path  style="fill: var(--color2, #fff)" d="M12.867 18.375l-0.318 4.169c0.454 0 0.651-0.182 0.887-0.401l2.13-1.9 4.415 3.017c0.81 0.421 1.38 0.199 1.598-0.695l2.898-12.673c0.257-1.117-0.433-1.554-1.222-1.28l-17.032 6.086c-1.162 0.421-1.145 1.026-0.198 1.3l4.354 1.264 10.115-5.907c0.476-0.294 0.909-0.131 0.553 0.163l-8.182 6.857z"></path>
</symbol>
<symbol id="logo" viewBox="0 0 127 32">
<path d="M15.188 0.025c-0.004 0.005-0.034 0.009-0.065 0.011s-0.121 0.007-0.199 0.012c-0.079 0.005-0.169 0.012-0.203 0.015-0.034 0.001-0.098 0.008-0.142 0.012s-0.115 0.011-0.156 0.015c-0.041 0.004-0.096 0.009-0.122 0.012s-0.072 0.008-0.102 0.014c-0.030 0.004-0.081 0.011-0.115 0.015s-0.079 0.009-0.102 0.012c-0.022 0.003-0.068 0.008-0.102 0.012-0.034 0.005-0.083 0.012-0.108 0.016-0.026 0.003-0.069 0.009-0.095 0.012-0.026 0.004-0.062 0.009-0.081 0.014s-0.058 0.011-0.088 0.015c-0.030 0.004-0.066 0.009-0.081 0.012s-0.045 0.008-0.068 0.012c-0.022 0.004-0.074 0.012-0.115 0.020s-0.089 0.016-0.108 0.020c-0.019 0.003-0.049 0.009-0.068 0.014s-0.056 0.011-0.081 0.015c-0.057 0.008-0.103 0.016-0.133 0.026-0.012 0.004-0.041 0.011-0.064 0.015-0.050 0.008-0.1 0.018-0.135 0.026-0.015 0.004-0.069 0.016-0.122 0.027-0.051 0.012-0.127 0.030-0.165 0.041-0.039 0.011-0.072 0.016-0.072 0.014 0-0.004-0.011 0-0.024 0.007-0.012 0.007-0.066 0.022-0.118 0.034-0.079 0.016-0.337 0.084-0.501 0.13-0.562 0.158-1.364 0.444-1.943 0.693-3.077 1.327-5.684 3.595-7.414 6.454-0.785 1.299-1.368 2.665-1.758 4.128-0.065 0.242-0.103 0.393-0.125 0.495-0.061 0.282-0.118 0.551-0.135 0.648-0.014 0.066-0.026 0.134-0.028 0.149s-0.008 0.049-0.012 0.074c-0.004 0.026-0.016 0.102-0.027 0.169-0.012 0.066-0.024 0.137-0.027 0.156s-0.008 0.058-0.012 0.088c-0.005 0.030-0.012 0.081-0.016 0.115-0.003 0.034-0.009 0.076-0.012 0.095-0.004 0.019-0.009 0.073-0.014 0.122-0.005 0.049-0.011 0.099-0.015 0.111-0.004 0.014-0.009 0.050-0.012 0.081-0.003 0.033-0.008 0.092-0.014 0.133-0.015 0.13-0.020 0.194-0.026 0.277-0.004 0.045-0.009 0.133-0.014 0.196s-0.012 0.157-0.018 0.21c-0.012 0.123-0.012 1.84 0 1.963 0.005 0.051 0.014 0.146 0.018 0.21s0.009 0.152 0.014 0.196c0.005 0.084 0.011 0.148 0.026 0.277 0.005 0.041 0.011 0.1 0.014 0.133 0.003 0.031 0.008 0.068 0.012 0.081 0.004 0.012 0.009 0.062 0.015 0.111 0.004 0.049 0.009 0.103 0.014 0.122 0.003 0.019 0.009 0.061 0.012 0.095 0.004 0.034 0.011 0.085 0.016 0.115 0.004 0.030 0.009 0.069 0.012 0.088s0.015 0.088 0.027 0.156c0.011 0.066 0.023 0.143 0.027 0.169s0.009 0.060 0.012 0.074c0.003 0.015 0.015 0.081 0.028 0.149 0.018 0.097 0.074 0.367 0.135 0.648 0.076 0.352 0.257 0.992 0.406 1.439 0.937 2.801 2.649 5.298 4.943 7.212 1.349 1.123 2.859 2.014 4.496 2.65 0.349 0.135 0.855 0.309 0.865 0.298 0.004-0.005 0.008-0.451 0.008-0.992v-0.984l-0.084-0.016c-1.31-0.253-2.522-1.096-3.231-2.248-0.385-0.625-0.604-1.255-0.702-2.024-0.020-0.154-0.023-0.41-0.028-2.133l-0.005-1.956-0.104-0.024c-0.363-0.084-0.781-0.292-1.086-0.541-0.301-0.245-0.558-0.573-0.731-0.931-0.501-1.038-0.286-2.263 0.543-3.079 0.23-0.226 0.45-0.382 0.731-0.518 0.253-0.122 0.462-0.185 0.818-0.252l0.028-0.004-0.031-0.214c-0.297-2.070 0.133-4.187 1.212-5.967 1.087-1.794 2.752-3.158 4.718-3.873 1.735-0.629 3.637-0.726 5.428-0.276 2.033 0.51 3.837 1.71 5.096 3.387 1.429 1.903 2.049 4.263 1.742 6.616-0.016 0.115-0.031 0.234-0.035 0.265l-0.007 0.056 0.098 0.009c0.245 0.022 0.567 0.116 0.836 0.245 0.573 0.273 1.008 0.704 1.285 1.272 0.393 0.803 0.362 1.733-0.087 2.511-0.362 0.628-0.97 1.095-1.678 1.285l-0.057 0.015-0.005 1.974c-0.005 2.127-0.003 2.044-0.079 2.466-0.337 1.896-1.817 3.453-3.707 3.9l-0.192 0.046v0.868c0 0.476 0.003 0.87 0.007 0.874s0.1-0.030 0.214-0.073c2.577-1.011 4.848-2.669 6.617-4.828 1.115-1.36 2.022-2.954 2.629-4.617 0.089-0.245 0.207-0.596 0.26-0.772 0.123-0.412 0.237-0.837 0.29-1.083 0.007-0.035 0.030-0.134 0.041-0.183 0.004-0.015 0.009-0.042 0.014-0.061 0.003-0.019 0.009-0.049 0.014-0.068s0.011-0.049 0.014-0.068c0.005-0.027 0.032-0.164 0.039-0.189 0.001-0.004 0.007-0.034 0.012-0.068 0.007-0.034 0.014-0.073 0.018-0.088 0.003-0.015 0.008-0.042 0.011-0.061s0.022-0.131 0.041-0.25c0.019-0.119 0.038-0.244 0.042-0.277 0.003-0.034 0.009-0.076 0.012-0.095s0.009-0.065 0.014-0.102c0.004-0.038 0.015-0.114 0.022-0.169 0.008-0.055 0.016-0.133 0.020-0.169 0.003-0.038 0.008-0.089 0.012-0.115 0.003-0.026 0.008-0.103 0.014-0.169 0.004-0.068 0.011-0.142 0.015-0.168 0.011-0.065 0.026-0.313 0.039-0.624 0.011-0.253 0.011-1.073 0-1.327-0.014-0.311-0.028-0.559-0.039-0.624-0.004-0.026-0.011-0.102-0.015-0.168-0.005-0.068-0.011-0.143-0.014-0.169-0.004-0.026-0.009-0.079-0.012-0.115-0.004-0.038-0.012-0.114-0.020-0.169-0.007-0.056-0.018-0.133-0.022-0.169-0.004-0.038-0.011-0.083-0.014-0.102s-0.009-0.061-0.012-0.095c-0.004-0.034-0.023-0.158-0.042-0.277s-0.038-0.231-0.041-0.25c-0.003-0.019-0.008-0.046-0.011-0.061-0.004-0.015-0.011-0.054-0.018-0.088-0.005-0.034-0.011-0.064-0.012-0.068-0.007-0.026-0.034-0.162-0.039-0.19-0.003-0.019-0.009-0.049-0.014-0.068s-0.011-0.049-0.014-0.068c-0.004-0.019-0.009-0.046-0.014-0.061-0.011-0.049-0.034-0.148-0.041-0.183-0.053-0.246-0.167-0.671-0.29-1.083-0.053-0.176-0.171-0.527-0.26-0.772-0.967-2.649-2.63-5.006-4.821-6.83-1.343-1.118-2.886-2.022-4.527-2.653-0.278-0.107-0.887-0.318-1.052-0.365-0.041-0.012-0.104-0.031-0.142-0.042-0.073-0.022-0.096-0.028-0.251-0.072-0.131-0.037-0.618-0.16-0.731-0.185-0.049-0.011-0.099-0.022-0.111-0.026-0.037-0.008-0.081-0.019-0.119-0.026-0.019-0.004-0.049-0.009-0.068-0.014s-0.049-0.009-0.068-0.014c-0.019-0.004-0.049-0.009-0.068-0.014s-0.049-0.011-0.068-0.014c-0.019-0.003-0.049-0.009-0.068-0.014s-0.056-0.011-0.081-0.015c-0.026-0.003-0.074-0.012-0.108-0.019-0.068-0.014-0.158-0.030-0.19-0.035-0.125-0.020-0.257-0.041-0.345-0.051-0.037-0.005-0.083-0.012-0.102-0.015s-0.061-0.009-0.095-0.014c-0.034-0.004-0.083-0.011-0.108-0.015-0.064-0.009-0.158-0.019-0.372-0.038-0.051-0.004-0.122-0.012-0.156-0.016-0.034-0.005-0.088-0.009-0.122-0.012-0.116-0.007-0.345-0.023-0.399-0.030-0.083-0.009-1.914-0.016-1.923-0.007z"></path>
<path d="M16.109 6.412c-1.128 0.046-2.13 0.291-3.094 0.759-0.785 0.38-1.408 0.816-2.037 1.425-0.233 0.226-0.57 0.609-0.769 0.876-0.023 0.030 0.496 0.466 0.88 0.739 1.050 0.747 2.258 1.262 3.564 1.519 1.389 0.273 2.886 0.23 4.258-0.122 1.162-0.298 2.267-0.824 3.193-1.52 0.249-0.187 0.512-0.405 0.512-0.424 0-0.022-0.24-0.337-0.414-0.547-0.188-0.226-0.651-0.689-0.886-0.887-1.381-1.161-3.031-1.781-4.835-1.818-0.145-0.003-0.313-0.004-0.372-0.001z"></path>
<path d="M9.454 10.708c-0.282 0.593-0.47 1.146-0.603 1.78-0.181 0.873-0.198 1.905-0.042 2.792 0.019 0.106 0.034 0.196 0.034 0.199 0 0.004 3.376 0.007 7.501 0.007h7.503l0.014-0.072c0.031-0.158 0.057-0.332 0.083-0.552 0.153-1.339-0.053-2.692-0.595-3.917-0.047-0.104-0.089-0.195-0.095-0.2-0.007-0.007-0.084 0.045-0.172 0.114-2.688 2.105-6.414 2.764-9.798 1.733-1.314-0.401-2.596-1.092-3.602-1.946-0.073-0.061-0.135-0.112-0.138-0.112s-0.043 0.079-0.089 0.176z"></path>
<path d="M55.91 11.084c-0.003 0.003-0.046 0.007-0.097 0.011-0.145 0.009-0.257 0.020-0.39 0.038-0.030 0.004-0.084 0.011-0.122 0.016-0.037 0.004-0.070 0.009-0.076 0.014-0.005 0.003-0.032 0.008-0.060 0.014-0.028 0.004-0.064 0.011-0.080 0.014-0.015 0.004-0.061 0.012-0.1 0.019-0.041 0.007-0.084 0.016-0.097 0.020s-0.037 0.011-0.050 0.014c-0.349 0.073-0.93 0.277-1.379 0.483-0.714 0.329-1.357 0.82-1.769 1.351-0.385 0.494-0.742 1.225-0.93 1.895-0.042 0.15-0.077 0.291-0.072 0.291 0.001 0-0.003 0.016-0.011 0.035-0.007 0.020-0.018 0.064-0.022 0.095-0.005 0.033-0.015 0.087-0.023 0.12-0.007 0.034-0.015 0.079-0.019 0.102-0.003 0.022-0.008 0.062-0.014 0.088-0.004 0.026-0.009 0.060-0.011 0.074-0.003 0.015-0.009 0.053-0.014 0.085-0.065 0.41-0.084 1.22-0.042 1.81 0.015 0.226 0.028 0.364 0.041 0.426 0.007 0.038 0.023 0.165 0.027 0.217 0.001 0.019 0.007 0.051 0.011 0.074 0.004 0.022 0.012 0.062 0.015 0.088 0.004 0.026 0.011 0.062 0.015 0.081 0.022 0.108 0.034 0.173 0.041 0.21 0.004 0.022 0.009 0.054 0.014 0.070 0.004 0.018 0.009 0.042 0.012 0.055 0.016 0.072 0.053 0.218 0.064 0.253 0.007 0.022 0.031 0.104 0.054 0.183 0.177 0.594 0.474 1.174 0.825 1.609 0.359 0.444 0.967 0.924 1.51 1.193 0.245 0.12 0.536 0.231 0.758 0.291 0.221 0.060 0.288 0.076 0.332 0.083 0.026 0.004 0.051 0.011 0.057 0.014 0.005 0.004 0.042 0.012 0.081 0.019 0.070 0.012 0.107 0.020 0.173 0.034 0.049 0.012 0.080 0.016 0.156 0.027 0.037 0.005 0.072 0.012 0.077 0.015 0.007 0.004 0.037 0.011 0.069 0.014 0.031 0.004 0.072 0.009 0.091 0.012 0.179 0.028 0.655 0.049 1.090 0.049 0.36-0.001 0.924-0.019 1.062-0.034 0.034-0.004 0.122-0.011 0.196-0.016 0.076-0.004 0.164-0.011 0.198-0.015 0.034-0.003 0.088-0.008 0.122-0.011 0.073-0.007 0.123-0.014 0.196-0.026 0.030-0.004 0.079-0.011 0.108-0.015s0.079-0.011 0.108-0.015c0.030-0.004 0.064-0.009 0.074-0.011 0.011-0.003 0.039-0.008 0.061-0.012 0.023-0.005 0.065-0.012 0.095-0.018 0.077-0.011 0.154-0.024 0.223-0.039 0.019-0.004 0.046-0.011 0.061-0.014 0.015-0.004 0.039-0.009 0.054-0.014 0.015-0.003 0.070-0.016 0.122-0.027 0.053-0.012 0.165-0.045 0.251-0.073 0.561-0.188 0.887-0.474 1.014-0.887 0.035-0.115 0.043-0.165 0.047-0.287 0.003-0.053 0.008-0.102 0.012-0.11 0.005-0.008 0.005-0.018 0-0.023-0.005-0.004-0.009-0.058-0.011-0.12-0.004-0.125-0.015-0.225-0.047-0.409-0.007-0.045-0.018-0.108-0.022-0.142s-0.014-0.072-0.020-0.085c-0.008-0.012-0.009-0.023-0.007-0.023 0.004 0 0.003-0.014-0.004-0.031s-0.016-0.055-0.020-0.085c-0.009-0.055-0.015-0.078-0.13-0.466-0.121-0.41-0.229-0.631-0.397-0.808-0.153-0.16-0.321-0.227-0.492-0.194-0.043 0.008-0.095 0.018-0.114 0.022-0.041 0.008-0.324 0.083-0.427 0.114-0.168 0.049-0.761 0.229-0.894 0.271-0.022 0.007-0.074 0.022-0.115 0.032s-0.123 0.032-0.183 0.049c-0.060 0.016-0.119 0.032-0.131 0.035-0.014 0.003-0.035 0.008-0.047 0.012-0.081 0.020-0.195 0.046-0.24 0.053-0.028 0.005-0.056 0.011-0.061 0.014-0.005 0.004-0.037 0.009-0.069 0.014-0.034 0.004-0.076 0.011-0.095 0.016-0.019 0.004-0.097 0.011-0.176 0.014-0.409 0.018-0.727-0.207-0.964-0.677-0.083-0.164-0.134-0.303-0.187-0.501-0.043-0.166-0.091-0.417-0.102-0.543-0.004-0.045-0.012-0.138-0.019-0.207-0.012-0.137-0.009-0.777 0.003-0.93 0.005-0.053 0.009-0.11 0.009-0.127s0.007-0.072 0.015-0.122c0.008-0.049 0.018-0.111 0.022-0.137 0.014-0.102 0.089-0.393 0.135-0.514 0.108-0.29 0.246-0.513 0.431-0.698 0.187-0.188 0.378-0.287 0.603-0.314 0.115-0.014 0.363 0.005 0.527 0.039 0.034 0.007 0.081 0.016 0.103 0.020 0.023 0.004 0.053 0.009 0.068 0.012s0.050 0.008 0.080 0.014c0.028 0.004 0.057 0.011 0.062 0.014 0.005 0.004 0.034 0.009 0.062 0.014 0.030 0.005 0.065 0.012 0.080 0.016 0.035 0.012 0.045 0.014 0.107 0.024 0.030 0.005 0.068 0.015 0.085 0.022s0.031 0.009 0.031 0.005c0-0.003 0.020 0.001 0.045 0.008 0.023 0.008 0.058 0.016 0.077 0.020s0.142 0.034 0.276 0.068c0.133 0.034 0.257 0.065 0.276 0.068 0.019 0.004 0.070 0.016 0.116 0.027s0.093 0.023 0.107 0.026c0.014 0.003 0.035 0.008 0.047 0.012s0.042 0.011 0.064 0.015c0.023 0.003 0.056 0.009 0.074 0.014s0.049 0.011 0.068 0.015c0.019 0.003 0.049 0.009 0.068 0.014 0.135 0.031 0.179 0.038 0.257 0.038 0.15-0.001 0.253-0.039 0.389-0.143 0.076-0.058 0.191-0.202 0.259-0.322 0.073-0.133 0.177-0.405 0.241-0.636 0.034-0.119 0.073-0.275 0.081-0.311 0.003-0.019 0.009-0.043 0.014-0.054 0.005-0.018 0.056-0.25 0.066-0.318 0.058-0.34 0.066-0.585 0.027-0.846-0.018-0.122-0.056-0.236-0.119-0.359-0.043-0.084-0.085-0.138-0.186-0.238-0.329-0.329-0.684-0.489-1.369-0.615-0.019-0.004-0.056-0.009-0.081-0.012-0.026-0.004-0.064-0.009-0.087-0.014-0.112-0.020-0.265-0.037-0.501-0.054-0.060-0.005-0.142-0.012-0.183-0.016-0.106-0.008-0.314-0.022-0.433-0.026-0.16-0.007-1.18-0.014-1.185-0.009z"></path>
<path d="M76.168 11.086c-0.003 0.003-0.041 0.007-0.083 0.009-0.043 0.001-0.115 0.007-0.16 0.012s-0.099 0.012-0.122 0.014c-0.022 0.003-0.058 0.008-0.081 0.011-0.022 0.004-0.070 0.011-0.108 0.016-0.069 0.008-0.19 0.030-0.251 0.043-0.019 0.004-0.043 0.009-0.054 0.011s-0.035 0.007-0.054 0.011c-0.019 0.005-0.051 0.012-0.074 0.016-0.088 0.016-0.112 0.023-0.237 0.056-0.776 0.208-1.555 0.566-2.092 0.957-0.628 0.459-1.037 0.946-1.4 1.67-0.165 0.33-0.362 0.839-0.431 1.114-0.009 0.041-0.020 0.084-0.023 0.095-0.009 0.037-0.050 0.208-0.057 0.237-0.003 0.015-0.008 0.042-0.012 0.061-0.022 0.104-0.074 0.425-0.081 0.494-0.005 0.045-0.011 0.099-0.015 0.122-0.023 0.181-0.046 0.596-0.047 0.866-0.003 0.337 0.028 0.896 0.062 1.164 0.003 0.022 0.009 0.074 0.014 0.115 0.015 0.123 0.014 0.115 0.056 0.352 0.172 0.975 0.508 1.777 1.004 2.396 0.131 0.165 0.366 0.403 0.539 0.548 0.535 0.448 1.031 0.728 1.612 0.907 0.251 0.077 0.282 0.085 0.332 0.095 0.026 0.004 0.066 0.014 0.088 0.020 0.037 0.011 0.074 0.020 0.149 0.034 0.089 0.018 0.115 0.023 0.183 0.037 0.041 0.008 0.084 0.016 0.095 0.018 0.035 0.005 0.114 0.022 0.135 0.027 0.011 0.003 0.047 0.009 0.081 0.014s0.083 0.011 0.108 0.014c0.316 0.049 1.301 0.062 1.943 0.027 0.333-0.019 0.67-0.046 0.826-0.068 0.167-0.022 0.223-0.030 0.307-0.039 0.027-0.003 0.084-0.014 0.129-0.023 0.043-0.008 0.088-0.018 0.099-0.019s0.045-0.008 0.074-0.014c0.1-0.019 0.108-0.020 0.156-0.028 0.026-0.004 0.066-0.014 0.088-0.020 0.023-0.007 0.114-0.030 0.203-0.051 0.551-0.135 0.962-0.413 1.131-0.765 0.065-0.137 0.1-0.26 0.116-0.401 0.009-0.083 0.009-0.296 0-0.393-0.004-0.034-0.009-0.099-0.015-0.142-0.008-0.092-0.011-0.107-0.039-0.257-0.012-0.065-0.034-0.173-0.041-0.203-0.039-0.173-0.079-0.332-0.088-0.359-0.007-0.019-0.026-0.080-0.042-0.135-0.172-0.597-0.352-0.899-0.611-1.022-0.157-0.074-0.215-0.076-0.452-0.012-0.037 0.009-0.087 0.022-0.108 0.024-0.047 0.008-0.729 0.206-0.819 0.238-0.019 0.007-0.107 0.034-0.196 0.061-0.164 0.049-0.195 0.057-0.305 0.088-0.034 0.009-0.088 0.024-0.122 0.035-0.104 0.030-0.222 0.058-0.366 0.088-0.034 0.007-0.074 0.015-0.091 0.019-0.186 0.042-0.339 0.060-0.456 0.055-0.145-0.005-0.196-0.015-0.297-0.055-0.305-0.125-0.554-0.43-0.718-0.887-0.043-0.119-0.108-0.36-0.123-0.453-0.003-0.023-0.015-0.096-0.026-0.162-0.042-0.242-0.054-0.441-0.056-0.832 0-0.337 0.012-0.547 0.042-0.711 0.005-0.030 0.008-0.058 0.007-0.064-0.003-0.009 0.015-0.103 0.031-0.173 0.005-0.019 0.011-0.053 0.015-0.074 0.030-0.179 0.158-0.517 0.269-0.704 0.186-0.313 0.406-0.513 0.669-0.608 0.084-0.030 0.29-0.066 0.313-0.056 0.004 0.003 0.068 0.008 0.141 0.012 0.074 0.005 0.139 0.012 0.145 0.016 0.005 0.003 0.039 0.009 0.076 0.014 0.035 0.004 0.076 0.009 0.089 0.014s0.041 0.009 0.061 0.012c0.020 0.004 0.051 0.009 0.070 0.014 0.019 0.003 0.068 0.014 0.108 0.022s0.081 0.016 0.088 0.018c0.008 0.003 0.038 0.008 0.068 0.014 0.030 0.007 0.167 0.038 0.305 0.072 0.275 0.066 0.29 0.070 0.339 0.080 0.019 0.004 0.068 0.016 0.108 0.027 0.041 0.012 0.089 0.024 0.108 0.027 0.019 0.004 0.053 0.012 0.074 0.019 0.023 0.007 0.062 0.016 0.088 0.020s0.072 0.015 0.102 0.022c0.030 0.008 0.064 0.016 0.074 0.019s0.069 0.015 0.129 0.027c0.060 0.012 0.123 0.026 0.142 0.028s0.049 0.009 0.068 0.014c0.202 0.050 0.359 0.026 0.515-0.079 0.256-0.171 0.427-0.508 0.601-1.182 0.13-0.499 0.16-0.697 0.16-1.042 0-0.302-0.032-0.463-0.133-0.656-0.138-0.267-0.479-0.533-0.872-0.684-0.104-0.039-0.325-0.104-0.417-0.122-0.016-0.003-0.034-0.008-0.041-0.011-0.005-0.004-0.043-0.011-0.084-0.016s-0.079-0.012-0.084-0.015c-0.005-0.004-0.032-0.009-0.060-0.014-0.028-0.003-0.069-0.009-0.092-0.014-0.046-0.008-0.103-0.016-0.198-0.027-0.034-0.004-0.083-0.011-0.108-0.014-0.050-0.008-0.087-0.011-0.264-0.024-0.060-0.005-0.142-0.012-0.183-0.015-0.107-0.009-0.314-0.023-0.44-0.027-0.184-0.007-1.2-0.014-1.207-0.008z"></path>
<path d="M84.373 11.087c-0.003 0.004-0.084 0.008-0.177 0.011-0.095 0.001-0.211 0.005-0.26 0.008-0.146 0.008-0.328 0.022-0.4 0.028-0.037 0.003-0.119 0.009-0.183 0.015-0.199 0.015-0.209 0.016-0.271 0.026-0.034 0.005-0.091 0.012-0.129 0.015-0.037 0.003-0.085 0.008-0.108 0.012-0.022 0.004-0.065 0.009-0.095 0.014s-0.069 0.009-0.088 0.012c-0.019 0.004-0.056 0.009-0.081 0.014-0.108 0.016-0.157 0.024-0.183 0.028-0.015 0.003-0.049 0.009-0.074 0.014-0.204 0.037-0.531 0.152-0.646 0.23-0.088 0.060-0.162 0.134-0.195 0.199-0.026 0.050-0.026 0.164-0.026 5.251v5.201l0.027 0.058c0.058 0.12 0.223 0.225 0.406 0.256 0.173 0.031 0.229 0.037 0.508 0.054 0.198 0.012 0.941 0.012 1.239 0 0.13-0.007 0.276-0.012 0.325-0.015 0.049-0.001 0.11-0.007 0.135-0.009 0.043-0.007 0.144-0.015 0.345-0.031 0.112-0.008 0.192-0.016 0.271-0.026 0.038-0.005 0.089-0.011 0.115-0.015 0.026-0.003 0.072-0.008 0.102-0.012s0.079-0.009 0.108-0.014c0.030-0.003 0.073-0.009 0.095-0.012 0.023-0.004 0.065-0.011 0.095-0.015s0.069-0.009 0.088-0.014c0.019-0.004 0.047-0.009 0.065-0.014 0.018-0.003 0.042-0.008 0.054-0.012s0.045-0.011 0.070-0.015c0.072-0.012 0.255-0.072 0.324-0.108 0.034-0.018 0.076-0.046 0.093-0.065l0.031-0.032-0.001-1.646v-1.647l0.122 0.003c0.068 0.001 0.127 0.009 0.134 0.016 0.007 0.008 0.119 0.356 0.251 0.773 0.133 0.417 0.249 0.782 0.259 0.812s0.131 0.413 0.269 0.853c0.139 0.439 0.271 0.837 0.294 0.883 0.047 0.095 0.129 0.176 0.225 0.225 0.088 0.045 0.226 0.087 0.324 0.097 0.043 0.005 0.102 0.011 0.127 0.015 0.219 0.026 0.428 0.032 1.043 0.032 0.6 0.001 0.979-0.009 1.232-0.032 0.056-0.005 0.148-0.012 0.203-0.016 0.13-0.009 0.198-0.015 0.257-0.026 0.026-0.004 0.073-0.009 0.106-0.014 0.031-0.004 0.077-0.009 0.102-0.014 0.083-0.015 0.111-0.019 0.179-0.028 0.038-0.004 0.072-0.011 0.076-0.014 0.005-0.003 0.081-0.020 0.169-0.039 0.406-0.088 0.697-0.254 0.787-0.449 0.047-0.102 0.047-0.165 0.003-0.383-0.11-0.539-0.701-1.68-1.641-3.159l-0.162-0.257 0.038-0.028c0.199-0.143 0.282-0.212 0.433-0.364 0.5-0.501 0.836-1.167 0.976-1.937 0.011-0.060 0.023-0.133 0.027-0.162s0.009-0.069 0.015-0.088c0.008-0.035 0.009-0.049 0.024-0.217 0.005-0.056 0.012-0.129 0.015-0.162 0.009-0.089 0.009-0.873 0.001-0.968-0.005-0.045-0.012-0.118-0.016-0.162-0.019-0.196-0.028-0.254-0.083-0.497-0.083-0.372-0.191-0.627-0.401-0.941-0.36-0.54-0.618-0.776-1.040-0.954-0.225-0.096-0.837-0.309-1.002-0.349-0.034-0.008-0.073-0.018-0.088-0.020-0.015-0.004-0.042-0.009-0.061-0.014s-0.049-0.009-0.068-0.014c-0.019-0.004-0.056-0.011-0.081-0.015s-0.062-0.009-0.081-0.014c-0.019-0.003-0.064-0.008-0.102-0.012-0.037-0.004-0.085-0.011-0.108-0.015-0.085-0.012-0.401-0.038-0.63-0.051-0.299-0.016-0.451-0.024-0.576-0.030-0.198-0.008-3.123-0.014-3.131-0.005zM86.658 13.637c0.198 0.076 0.367 0.223 0.459 0.401 0.092 0.175 0.156 0.452 0.165 0.717 0.005 0.131 0 0.426-0.009 0.487-0.003 0.026-0.009 0.077-0.012 0.115-0.016 0.169-0.080 0.398-0.149 0.535-0.11 0.218-0.26 0.355-0.46 0.42-0.11 0.035-0.318 0.055-0.528 0.051l-0.162-0.004-0.004-1.36c-0.001-0.749 0-1.368 0.004-1.378 0.011-0.030 0.615-0.015 0.697 0.016z"></path>
<path d="M47.744 11.22c-0.003 0.003-0.076 0.007-0.165 0.011-0.088 0.003-0.187 0.008-0.221 0.011-0.11 0.009-0.237 0.023-0.257 0.028-0.019 0.004-0.13 0.019-0.217 0.026-0.019 0.003-0.046 0.008-0.061 0.012-0.015 0.005-0.049 0.012-0.074 0.015-0.103 0.014-0.157 0.023-0.19 0.035-0.019 0.007-0.058 0.016-0.088 0.022s-0.060 0.012-0.068 0.014c-0.007 0.003-0.068 0.019-0.135 0.037-0.674 0.183-1.203 0.464-1.319 0.703l-0.028 0.061v10.038l0.034 0.058c0.080 0.135 0.265 0.204 0.623 0.23 0.367 0.027 1.446 0.026 1.903-0.001 0.049-0.004 0.139-0.008 0.203-0.012 0.064-0.003 0.137-0.009 0.163-0.014s0.108-0.011 0.183-0.015c0.074-0.005 0.163-0.011 0.196-0.015s0.095-0.011 0.135-0.014c0.126-0.012 0.177-0.018 0.311-0.038 0.070-0.011 0.156-0.023 0.19-0.027 0.079-0.011 0.137-0.020 0.165-0.030 0.014-0.004 0.041-0.011 0.061-0.014 0.11-0.020 0.253-0.080 0.293-0.123 0.022-0.026 0.023-0.294 0.023-5.184 0-5.493 0.004-5.184-0.060-5.306-0.030-0.058-0.107-0.148-0.18-0.208-0.115-0.095-0.368-0.208-0.52-0.234-0.060-0.009-0.104-0.019-0.131-0.027-0.081-0.023-0.749-0.056-0.768-0.038z"></path>
<path d="M62.709 11.238c-0.034 0.004-0.122 0.009-0.195 0.009-0.171 0.001-0.302 0.012-0.456 0.035-0.015 0.003-0.051 0.008-0.081 0.012-0.069 0.009-0.084 0.014-0.223 0.047-0.293 0.073-0.493 0.244-0.554 0.471-0.020 0.076-0.022 10.339-0.001 10.393 0.046 0.12 0.225 0.242 0.395 0.271 0.024 0.004 0.064 0.011 0.085 0.016 0.079 0.016 0.169 0.026 0.325 0.037 0.045 0.003 1.723 0.005 3.73 0.007l3.648 0.001 0.045-0.028c0.122-0.074 0.244-0.345 0.31-0.689 0.030-0.153 0.032-0.168 0.041-0.237 0.004-0.038 0.011-0.095 0.016-0.129 0.009-0.066 0.012-0.093 0.024-0.277 0.016-0.254 0.019-0.337 0.020-0.778 0.003-0.481-0.005-0.663-0.032-0.796-0.046-0.218-0.11-0.355-0.195-0.414l-0.057-0.041-0.18 0.004c-0.251 0.005-0.497 0.014-0.734 0.023-0.111 0.005-0.264 0.012-0.339 0.015s-0.175 0.007-0.223 0.011c-0.049 0.003-0.161 0.009-0.251 0.014-0.089 0.005-0.209 0.012-0.264 0.015-0.056 0.004-0.153 0.009-0.217 0.012-0.064 0.004-0.145 0.009-0.183 0.014-0.037 0.004-0.131 0.009-0.21 0.015-0.079 0.004-0.181 0.009-0.23 0.014-0.297 0.020-0.379 0.026-0.546 0.039-0.162 0.012-0.347 0.023-0.429 0.026l-0.074 0.001-0.004-0.486c-0.003-0.38 0.001-0.489 0.014-0.498 0.009-0.005 0.039-0.008 0.066-0.004 0.026 0.005 0.188 0.011 0.359 0.014 0.391 0.005 0.853 0.015 1.854 0.038 0.164 0.004 0.371 0.009 0.46 0.014 0.219 0.008 0.271-0.008 0.379-0.118 0.133-0.135 0.23-0.367 0.298-0.705 0.026-0.129 0.041-0.244 0.053-0.399 0.005-0.055 0.012-0.129 0.016-0.162 0.018-0.145 0.027-0.791 0.014-0.948-0.028-0.321-0.092-0.516-0.207-0.631-0.092-0.092-0.115-0.096-0.512-0.091-0.194 0.003-0.423 0.008-0.508 0.011s-0.29 0.009-0.454 0.015c-0.164 0.004-0.362 0.011-0.44 0.012-0.079 0.003-0.221 0.008-0.318 0.012-0.096 0.005-0.279 0.012-0.406 0.016-0.408 0.014-0.594 0.022-0.63 0.023l-0.034 0.003v-1.042l0.061 0.004c0.034 0.003 0.088 0.007 0.122 0.011s0.107 0.009 0.162 0.014c0.056 0.003 0.123 0.008 0.149 0.011s0.106 0.008 0.176 0.012c0.070 0.004 0.157 0.012 0.191 0.016s0.097 0.011 0.142 0.014c0.043 0.003 0.138 0.008 0.209 0.012 0.070 0.005 0.156 0.011 0.19 0.015s0.104 0.009 0.156 0.012c0.184 0.009 0.367 0.020 0.481 0.028 0.335 0.024 0.85 0.046 1.239 0.051 0.221 0.003 0.264 0 0.306-0.019 0.145-0.070 0.272-0.351 0.345-0.763 0.016-0.091 0.019-0.111 0.026-0.19 0.004-0.045 0.011-0.091 0.015-0.102s0.011-0.054 0.014-0.095c0.004-0.041 0.009-0.108 0.014-0.149 0.043-0.482 0.042-1.322-0.001-1.566-0.034-0.192-0.060-0.279-0.11-0.364-0.037-0.064-0.102-0.123-0.145-0.134-0.045-0.011-6.63-0.015-6.705-0.004z"></path>
<path d="M94.462 11.236c-0.003 0.004-0.065 0.008-0.137 0.009-0.144 0.003-0.37 0.016-0.423 0.024-0.019 0.004-0.064 0.009-0.102 0.014-0.272 0.033-0.501 0.11-0.65 0.222-0.083 0.062-0.16 0.169-0.196 0.276-0.027 0.077-0.027 0.091-0.027 5.236 0 4.761 0.001 5.16 0.022 5.201 0.035 0.068 0.070 0.107 0.137 0.154 0.069 0.049 0.183 0.095 0.259 0.107 0.028 0.004 0.058 0.009 0.069 0.014 0.027 0.009 0.188 0.028 0.326 0.038 0.041 0.003 1.719 0.007 3.73 0.007l3.655 0.001 0.045-0.028c0.081-0.049 0.15-0.156 0.217-0.333 0.034-0.089 0.081-0.261 0.093-0.342 0.004-0.026 0.011-0.062 0.014-0.081 0.004-0.019 0.011-0.049 0.014-0.068 0.004-0.019 0.011-0.061 0.015-0.095 0.009-0.080 0.018-0.146 0.026-0.196 0.003-0.023 0.009-0.102 0.014-0.176 0.005-0.074 0.011-0.169 0.014-0.21 0.016-0.222 0.023-0.753 0.014-1.002-0.015-0.39-0.074-0.648-0.177-0.769-0.068-0.080-0.116-0.093-0.317-0.087-0.093 0.004-0.255 0.008-0.359 0.012-0.104 0.003-0.275 0.008-0.379 0.012s-0.248 0.011-0.318 0.012c-0.070 0.003-0.171 0.008-0.223 0.012-0.051 0.004-0.158 0.011-0.237 0.015-0.142 0.008-0.249 0.014-0.488 0.030-0.070 0.004-0.177 0.011-0.237 0.014-0.19 0.011-0.358 0.023-0.555 0.038-0.051 0.003-0.141 0.009-0.196 0.014-0.056 0.005-0.153 0.011-0.217 0.015s-0.152 0.009-0.196 0.014c-0.045 0.004-0.126 0.009-0.18 0.015l-0.097 0.007 0.003-0.498 0.004-0.499 0.074 0.004c0.041 0.001 0.203 0.005 0.359 0.008 0.6 0.011 1.178 0.023 1.862 0.039 0.718 0.018 0.665 0.018 0.725-0.014 0.066-0.035 0.153-0.123 0.209-0.214 0.083-0.131 0.172-0.406 0.211-0.648 0.011-0.068 0.024-0.142 0.028-0.164 0.004-0.023 0.009-0.072 0.012-0.108 0.009-0.114 0.022-0.279 0.028-0.386 0.009-0.149 0.011-0.742 0.001-0.812-0.004-0.034-0.011-0.092-0.016-0.129-0.034-0.276-0.135-0.471-0.282-0.539-0.068-0.034-0.077-0.034-0.314-0.030-0.302 0.007-0.752 0.019-1.117 0.030-0.153 0.005-0.356 0.011-0.454 0.014-0.199 0.007-0.489 0.018-0.65 0.024-0.060 0.004-0.221 0.009-0.359 0.015s-0.265 0.009-0.284 0.011l-0.034 0.001v-0.521c0-0.513 0-0.521 0.027-0.518 0.030 0.003 0.191 0.016 0.298 0.024 0.038 0.003 0.107 0.008 0.156 0.014 0.049 0.004 0.11 0.008 0.135 0.008 0.026 0.001 0.112 0.008 0.192 0.015 0.269 0.023 0.288 0.024 0.376 0.030 0.076 0.004 0.217 0.014 0.413 0.028 0.030 0.001 0.125 0.008 0.21 0.014 0.085 0.004 0.192 0.011 0.237 0.015 0.574 0.038 1.464 0.064 1.519 0.045 0.123-0.045 0.257-0.28 0.325-0.574 0.009-0.045 0.022-0.093 0.024-0.108 0.004-0.015 0.011-0.049 0.015-0.074s0.009-0.060 0.012-0.074c0.020-0.108 0.041-0.271 0.053-0.44 0.004-0.056 0.011-0.145 0.016-0.196 0.027-0.319 0.027-1.128-0.001-1.327-0.004-0.030-0.009-0.076-0.014-0.102-0.035-0.253-0.141-0.453-0.255-0.481-0.038-0.009-6.686-0.016-6.695-0.007z"></path>
<path d="M108.829 11.238c-0.020 0.005-0.158 0.011-0.307 0.011-0.267 0-0.417 0.005-0.697 0.022-0.079 0.004-0.191 0.011-0.251 0.014-0.181 0.011-0.253 0.016-0.352 0.026-0.051 0.004-0.131 0.011-0.176 0.015-0.045 0.003-0.111 0.009-0.149 0.014-0.037 0.003-0.097 0.009-0.135 0.012-0.037 0.003-0.089 0.008-0.115 0.012s-0.084 0.009-0.129 0.015c-0.045 0.004-0.096 0.011-0.115 0.014-0.035 0.005-0.16 0.022-0.217 0.028-0.065 0.007-0.207 0.028-0.257 0.039-0.004 0-0.028 0.005-0.054 0.011s-0.062 0.014-0.081 0.018c-0.019 0.004-0.049 0.009-0.068 0.014-0.072 0.014-0.267 0.079-0.325 0.107-0.106 0.054-0.118 0.076-0.218 0.402-0.13 0.416-0.221 0.705-0.283 0.897-0.028 0.089-0.081 0.253-0.115 0.365-0.035 0.111-0.087 0.276-0.115 0.365s-0.126 0.397-0.217 0.684c-0.286 0.906-0.5 1.581-0.589 1.861-0.119 0.374-0.511 1.609-0.582 1.841-0.032 0.104-0.118 0.378-0.19 0.609-0.237 0.762-0.538 1.76-0.624 2.078-0.011 0.041-0.043 0.157-0.072 0.257-0.084 0.291-0.173 0.667-0.187 0.782-0.005 0.047 0.001 0.076 0.037 0.146 0.096 0.195 0.367 0.336 0.901 0.468 0.141 0.034 0.153 0.037 0.21 0.045 0.026 0.004 0.079 0.012 0.115 0.020 0.038 0.008 0.083 0.018 0.102 0.020 0.092 0.014 0.135 0.019 0.203 0.026 0.041 0.005 0.089 0.011 0.108 0.015 0.057 0.009 0.284 0.027 0.521 0.041 0.169 0.008 1.031 0.009 1.178 0 0.251-0.015 0.353-0.022 0.4-0.027 0.026-0.003 0.081-0.009 0.122-0.014s0.107-0.015 0.148-0.023c0.041-0.007 0.087-0.016 0.102-0.018 0.129-0.020 0.306-0.078 0.409-0.137 0.236-0.13 0.36-0.333 0.376-0.615 0.004-0.070 0.011-0.162 0.015-0.203 0.009-0.096 0.031-0.319 0.041-0.44 0.005-0.053 0.008-0.108 0.008-0.126-0.001-0.018 0.005-0.043 0.012-0.058 0.014-0.024 0.038-0.026 0.765-0.026 0.413 0 0.753 0.004 0.753 0.009 0.004 0.028 0.012 0.1 0.019 0.166 0.019 0.194 0.026 0.257 0.039 0.372 0.004 0.030 0.009 0.088 0.014 0.129s0.011 0.088 0.014 0.104c0.004 0.018 0.011 0.087 0.015 0.156 0.015 0.207 0.085 0.313 0.284 0.424 0.129 0.073 0.385 0.158 0.557 0.188 0.080 0.014 0.122 0.022 0.154 0.028 0.019 0.004 0.054 0.011 0.080 0.015 0.026 0.003 0.064 0.009 0.084 0.012 0.022 0.004 0.070 0.009 0.11 0.014s0.096 0.009 0.126 0.014c0.057 0.005 0.21 0.020 0.291 0.027 0.026 0.003 0.111 0.008 0.19 0.012 0.67 0.037 1.576 0.031 1.849-0.009 0.023-0.004 0.077-0.011 0.122-0.016 0.045-0.004 0.093-0.012 0.108-0.016s0.039-0.009 0.054-0.012c0.103-0.012 0.267-0.055 0.383-0.1 0.264-0.1 0.447-0.253 0.5-0.414l0.022-0.070-0.085-0.302c-0.139-0.499-0.58-1.991-0.998-3.383-0.064-0.212-0.126-0.422-0.139-0.467-0.012-0.045-0.083-0.276-0.154-0.514s-0.144-0.476-0.158-0.528c-0.016-0.053-0.037-0.12-0.047-0.152-0.009-0.031-0.039-0.129-0.065-0.217s-0.249-0.827-0.496-1.642c-0.246-0.815-0.505-1.672-0.576-1.902-0.294-0.973-0.329-1.087-0.349-1.126-0.083-0.16-0.355-0.299-0.68-0.349-0.022-0.004-0.057-0.009-0.076-0.014s-0.065-0.011-0.102-0.014c-0.037-0.004-0.1-0.009-0.141-0.015-0.165-0.018-0.796-0.030-0.85-0.016zM108.156 14.985c0.001 0.011 0.007 0.066 0.012 0.122s0.015 0.162 0.022 0.237c0.005 0.074 0.011 0.145 0.011 0.156 0 0.023 0.014 0.168 0.022 0.25 0.004 0.030 0.009 0.1 0.015 0.156 0.004 0.056 0.011 0.138 0.015 0.183 0.007 0.087 0.020 0.244 0.027 0.345 0.007 0.089 0.018 0.212 0.026 0.298 0.004 0.041 0.011 0.12 0.015 0.176 0.016 0.214 0.019 0.252 0.026 0.318 0.004 0.037 0.009 0.107 0.014 0.156 0.003 0.049 0.009 0.137 0.015 0.196 0.004 0.060 0.009 0.133 0.011 0.162l0.001 0.054h-0.826l0.001-0.047c0.001-0.026 0.007-0.093 0.011-0.149 0.005-0.055 0.011-0.111 0.011-0.122s0.005-0.069 0.012-0.129c0.007-0.060 0.016-0.142 0.019-0.183 0.004-0.041 0.009-0.102 0.012-0.135s0.009-0.107 0.015-0.162c0.004-0.055 0.012-0.126 0.015-0.156 0.008-0.060 0.011-0.093 0.024-0.271 0.005-0.068 0.012-0.137 0.016-0.156 0.003-0.019 0.008-0.073 0.012-0.122s0.009-0.115 0.014-0.149c0.004-0.034 0.009-0.092 0.014-0.129 0.009-0.116 0.019-0.227 0.027-0.291 0.004-0.034 0.009-0.092 0.012-0.129 0.008-0.102 0.023-0.252 0.030-0.305 0.004-0.026 0.007-0.072 0.007-0.102 0.003-0.1 0.007-0.103 0.184-0.099 0.127 0.003 0.158 0.008 0.16 0.024z"></path>
<path d="M117.409 11.238c-0.009 0.004-0.092 0.008-0.186 0.008-0.093 0.001-0.221 0.005-0.284 0.009s-0.157 0.011-0.21 0.015c-0.051 0.004-0.116 0.009-0.142 0.012-0.026 0.004-0.081 0.009-0.122 0.012-0.041 0.004-0.114 0.012-0.162 0.020-0.049 0.007-0.122 0.018-0.162 0.022-0.041 0.005-0.089 0.012-0.108 0.015s-0.051 0.008-0.074 0.011c-0.043 0.005-0.087 0.015-0.142 0.027-0.019 0.004-0.057 0.011-0.087 0.015-0.028 0.004-0.056 0.009-0.061 0.012-0.004 0.003-0.038 0.009-0.076 0.014-0.037 0.005-0.085 0.015-0.108 0.022-0.022 0.007-0.077 0.022-0.122 0.033-0.451 0.108-0.754 0.273-0.827 0.449-0.016 0.039-0.019 0.786-0.019 5.136v5.090l0.034 0.066c0.073 0.146 0.263 0.246 0.528 0.279 0.264 0.032 0.28 0.034 1.266 0.034 0.99 0 1.026-0.001 1.469-0.034 0.092-0.008 0.303-0.031 0.372-0.042 0.019-0.003 0.056-0.008 0.081-0.011 0.106-0.015 0.144-0.022 0.29-0.061 0.251-0.068 0.372-0.133 0.424-0.229 0.024-0.046 0.026-0.072 0.020-0.341-0.005-0.309-0.011-0.486-0.023-0.717-0.016-0.325-0.020-0.376-0.027-0.453-0.003-0.045-0.016-0.222-0.027-0.393-0.011-0.172-0.023-0.357-0.027-0.413s-0.011-0.153-0.015-0.217c-0.018-0.277-0.027-0.397-0.038-0.521-0.004-0.038-0.009-0.114-0.014-0.169s-0.011-0.133-0.015-0.169c-0.012-0.122-0.030-0.351-0.031-0.386-0.001-0.032-0.009-0.134-0.023-0.284-0.004-0.041-0.009-0.114-0.014-0.162s-0.009-0.107-0.012-0.129c-0.003-0.023-0.007-0.074-0.009-0.115l-0.005-0.074 0.058-0.004c0.060-0.004 0.064 0 0.076 0.065 0.003 0.019 0.012 0.064 0.020 0.102 0.008 0.037 0.018 0.083 0.022 0.102 0.003 0.019 0.037 0.177 0.073 0.353 0.038 0.176 0.070 0.334 0.074 0.352 0.003 0.018 0.012 0.062 0.020 0.1 0.008 0.037 0.018 0.083 0.020 0.102 0.004 0.019 0.026 0.122 0.049 0.23s0.054 0.257 0.069 0.332c0.015 0.074 0.035 0.172 0.046 0.217s0.022 0.099 0.026 0.122c0.003 0.022 0.027 0.141 0.054 0.264 0.026 0.123 0.050 0.238 0.054 0.257 0.003 0.019 0.012 0.064 0.020 0.102 0.008 0.037 0.018 0.083 0.020 0.102 0.004 0.019 0.028 0.137 0.056 0.264 0.079 0.374 0.127 0.606 0.134 0.643 0.049 0.257 0.122 0.571 0.148 0.627 0.070 0.154 0.161 0.218 0.355 0.246 0.288 0.043 1.029 0.045 1.3 0.003 0.023-0.004 0.069-0.011 0.106-0.016 0.383-0.050 0.651-0.229 0.68-0.451 0.004-0.027 0.028-0.157 0.056-0.287 0.026-0.13 0.051-0.256 0.056-0.277 0.003-0.023 0.019-0.099 0.034-0.169 0.014-0.070 0.028-0.142 0.032-0.157 0.003-0.016 0.018-0.089 0.034-0.162 0.015-0.074 0.031-0.149 0.034-0.168 0.004-0.019 0.022-0.11 0.041-0.203s0.038-0.188 0.042-0.21c0.004-0.023 0.037-0.189 0.074-0.372 0.037-0.183 0.070-0.351 0.074-0.372 0.003-0.023 0.019-0.099 0.034-0.169 0.014-0.070 0.030-0.143 0.032-0.162 0.004-0.019 0.037-0.187 0.074-0.372 0.038-0.187 0.072-0.357 0.074-0.379 0.007-0.037 0.066-0.325 0.081-0.393 0.003-0.015 0.012-0.066 0.020-0.115 0.026-0.145 0.030-0.152 0.096-0.146 0.043 0.003 0.057 0.009 0.054 0.024-0.003 0.011-0.007 0.057-0.009 0.102s-0.008 0.118-0.012 0.162c-0.004 0.045-0.008 0.091-0.009 0.102-0.003 0.055-0.047 0.631-0.060 0.765-0.005 0.072-0.016 0.203-0.027 0.372-0.004 0.055-0.011 0.141-0.015 0.189s-0.008 0.097-0.008 0.108c0 0.011-0.008 0.145-0.019 0.298s-0.023 0.336-0.026 0.406c-0.004 0.070-0.011 0.16-0.014 0.198-0.004 0.038-0.011 0.12-0.014 0.183s-0.009 0.165-0.012 0.229c-0.016 0.268-0.028 0.629-0.038 1.069-0.007 0.311-0.007 0.319 0.024 0.38 0.050 0.102 0.146 0.172 0.317 0.231 0.074 0.026 0.093 0.032 0.153 0.045 0.016 0.003 0.049 0.011 0.070 0.015 0.046 0.011 0.049 0.011 0.169 0.024 0.206 0.022 0.288 0.023 0.765 0.022 0.626-0.004 0.829-0.009 1.165-0.034 0.053-0.004 0.144-0.009 0.203-0.014 0.11-0.008 0.171-0.014 0.305-0.027 0.041-0.005 0.102-0.011 0.135-0.014s0.085-0.009 0.115-0.014c0.030-0.004 0.069-0.011 0.088-0.014 0.019-0.001 0.056-0.008 0.081-0.012s0.069-0.011 0.095-0.015c0.333-0.042 0.635-0.135 0.735-0.227l0.037-0.035v-10.366l-0.042-0.062c-0.049-0.073-0.13-0.137-0.263-0.202-0.114-0.057-0.335-0.134-0.372-0.131-0.004 0-0.023-0.005-0.043-0.014s-0.066-0.018-0.102-0.022c-0.037-0.005-0.074-0.011-0.085-0.014-0.031-0.008-0.11-0.022-0.162-0.027-0.362-0.039-0.424-0.045-0.745-0.054-0.431-0.014-0.745-0.005-1.083 0.028-0.041 0.004-0.099 0.009-0.129 0.012s-0.079 0.009-0.108 0.014c-0.030 0.004-0.072 0.011-0.095 0.014-0.065 0.008-0.148 0.022-0.169 0.027-0.011 0.003-0.042 0.009-0.068 0.014-0.038 0.007-0.271 0.058-0.366 0.081-0.237 0.057-0.678 0.217-0.88 0.318-0.269 0.134-0.475 0.307-0.554 0.464-0.027 0.053-0.073 0.203-0.125 0.409-0.087 0.347-0.241 0.952-0.318 1.252-0.077 0.298-0.221 0.86-0.271 1.056-0.026 0.1-0.049 0.192-0.051 0.203-0.043 0.161-0.198 0.77-0.233 0.914-0.073 0.296-0.065 0.28-0.138 0.275l-0.062-0.004-0.038-0.149c-0.083-0.325-0.316-1.225-0.505-1.949-0.032-0.127-0.085-0.328-0.115-0.447-0.076-0.291-0.129-0.494-0.251-0.966-0.057-0.219-0.106-0.407-0.108-0.42-0.058-0.261-0.119-0.412-0.214-0.527-0.114-0.138-0.351-0.314-0.539-0.401-0.104-0.049-0.394-0.135-0.5-0.152-0.034-0.004-0.076-0.011-0.095-0.014-0.158-0.026-0.393-0.047-0.569-0.053-0.358-0.011-0.517-0.014-0.532-0.004z"></path>
<path d="M7.303 17.063c-0.168 0.046-0.33 0.173-0.404 0.317-0.068 0.135-0.074 0.203-0.074 0.814 0 0.623 0.007 0.684 0.083 0.826 0.079 0.148 0.248 0.273 0.416 0.31 0.053 0.011 1.506 0.015 5.406 0.015h5.334l0.005 1.837c0.004 2.048-0.003 1.888 0.099 2.095 0.088 0.18 0.229 0.319 0.418 0.414 0.169 0.084 0.24 0.093 0.699 0.093 0.455 0 0.528-0.011 0.716-0.104 0.152-0.076 0.316-0.244 0.391-0.399 0.102-0.208 0.096-0.092 0.096-2.12v-1.817h2.509c2.077 0 2.52-0.004 2.577-0.019 0.236-0.062 0.421-0.26 0.466-0.494 0.018-0.096 0.018-1.179 0-1.275-0.045-0.238-0.227-0.43-0.467-0.493-0.072-0.018-1.047-0.020-9.141-0.019-7.752 0-9.071 0.003-9.13 0.019z"></path>
<path d="M8.893 20.91c-0.015 0.015-0.011 4.227 0.004 4.428 0.028 0.364 0.106 0.644 0.267 0.964 0.194 0.384 0.45 0.681 0.814 0.945 0.135 0.096 0.469 0.267 0.641 0.326 0.15 0.051 0.391 0.104 0.557 0.122 0.184 0.020 10.346 0.020 10.531 0 0.578-0.062 1.128-0.325 1.54-0.736 0.351-0.349 0.6-0.811 0.696-1.286 0.054-0.267 0.057-0.417 0.053-2.633l-0.004-2.132-2.24-0.007-0.005 1.465c-0.004 1.454-0.004 1.467-0.034 1.597-0.087 0.382-0.256 0.694-0.52 0.957-0.283 0.283-0.653 0.472-1.047 0.536-0.177 0.030-1.542 0.030-1.72 0-0.71-0.115-1.308-0.623-1.514-1.286-0.088-0.28-0.083-0.168-0.087-1.791l-0.005-1.478h-3.958c-2.176 0-3.963 0.004-3.967 0.009z"></path>
<path d="M12.703 30.474c0 0.926 0.004 1.169 0.018 1.169 0.022 0.001 0.106 0.016 0.134 0.026 0.030 0.009 0.076 0.018 0.133 0.026 0.026 0.004 0.062 0.011 0.081 0.015s0.049 0.011 0.068 0.014c0.019 0.004 0.068 0.012 0.108 0.020s0.093 0.016 0.115 0.020c0.023 0.004 0.053 0.009 0.068 0.012s0.051 0.008 0.081 0.012c0.030 0.004 0.069 0.011 0.088 0.015s0.056 0.009 0.081 0.014c0.026 0.003 0.069 0.009 0.095 0.012 0.026 0.004 0.074 0.011 0.108 0.016 0.034 0.004 0.080 0.009 0.102 0.012 0.023 0.003 0.068 0.008 0.102 0.012s0.085 0.011 0.115 0.015c0.030 0.005 0.076 0.011 0.102 0.014 0.404 0.039 0.459 0.045 0.603 0.054 0.053 0.004 0.138 0.009 0.19 0.015 0.115 0.009 1.934 0.011 2.038 0.001 0.121-0.012 0.328-0.027 0.393-0.030 0.034-0.001 0.083-0.005 0.108-0.011s0.096-0.014 0.156-0.018c0.221-0.019 0.301-0.027 0.372-0.038 0.026-0.004 0.074-0.011 0.108-0.015s0.076-0.011 0.095-0.014c0.019-0.003 0.065-0.009 0.102-0.015 0.088-0.011 0.221-0.031 0.345-0.051 0.031-0.005 0.122-0.022 0.19-0.035 0.034-0.007 0.083-0.016 0.108-0.019 0.026-0.004 0.062-0.011 0.081-0.015s0.049-0.011 0.068-0.014c0.019-0.003 0.049-0.009 0.068-0.014s0.049-0.009 0.068-0.014c0.019-0.004 0.049-0.009 0.068-0.014s0.049-0.009 0.068-0.014c0.038-0.007 0.083-0.018 0.119-0.026 0.012-0.004 0.062-0.015 0.111-0.026s0.181-0.043 0.297-0.072l0.209-0.053-0.009-0.129c-0.004-0.070-0.008-0.556-0.008-1.080v-0.95h-7.543v1.168z"></path>
</symbol>
<symbol id="icon-form-person" viewBox="0 0 32 32">
<path d="M16 16c2.947 0 5.333-2.387 5.333-5.333s-2.387-5.333-5.333-5.333c-2.947 0-5.333 2.387-5.333 5.333s2.387 5.333 5.333 5.333zM16 18.667c-3.56 0-10.667 1.787-10.667 5.333v1.333c0 0.733 0.6 1.333 1.333 1.333h18.667c0.733 0 1.333-0.6 1.333-1.333v-1.333c0-3.547-7.107-5.333-10.667-5.333z"></path>
</symbol>
<symbol id="icon-form-phone" viewBox="0 0 32 32">
<path d="M24.882 19.773l-3.268-0.373c-0.785-0.090-1.557 0.18-2.11 0.733l-2.367 2.367c-3.641-1.853-6.626-4.825-8.478-8.478l2.38-2.38c0.553-0.553 0.823-1.325 0.733-2.11l-0.373-3.242c-0.154-1.299-1.248-2.277-2.56-2.277h-2.226c-1.454 0-2.663 1.209-2.573 2.663 0.682 10.987 9.469 19.761 20.443 20.443 1.454 0.090 2.663-1.119 2.663-2.573v-2.226c0.013-1.3-0.965-2.393-2.264-2.547z"></path>
</symbol>
<symbol id="ice-cream" viewBox="0 0 17 32">
<path fill="#fff" style="fill: var(--color1, #fff)" d="M8.328 3.55c3.612 0 6.543 2.428 6.543 5.419s-2.931 5.419-6.543 5.419-6.543-2.428-6.543-5.419c0.001-2.991 2.932-5.419 6.543-5.419z"></path>
<path fill="#a16121" style="fill: var(--color2, #a16121)" d="M9.163 31.831l6.445-24.652-12.946-0.047 6.502 24.699z"></path>
<path fill="#804000" style="fill: var(--color3, #804000)" d="M8.93 10.253c-0.061-0.672-0.005-1.161 0.168-1.525 0.177-0.364 0.592-0.774 0.849-0.62 0.233 0.149 0.322 1.166 0.625 1.52 0.303 0.336 0.998 0.256 1.185 0.569 0.163 0.312-0.191 0.853-0.112 1.296 0.079 0.429 0.532 0.886 0.62 1.301 0.079 0.401-0.229 0.574-0.117 1.129 0.103 0.546 0.587 1.548 0.737 2.145 0.14 0.583 0.177 1.035 0.112 1.357l-0.676 2.374c-0.168-0.774-0.294-1.534-0.397-2.318-0.107-0.807-0.075-1.646-0.224-2.374-0.173-0.718-0.55-1.436-0.737-1.921-0.196-0.494-0.056-0.532-0.392-1.012-0.346-0.496-0.887-1.13-1.642-1.922z"></path>
<path fill="#ffc080" style="fill: var(--color4, #ffc080)" d="M5.992 7.202c0.182 1.007 0.345 2.49 0.508 4.519 0.163 2.038 0.35 5.526 0.452 7.569 0.089 2.024 0.126 3.47 0.112 4.463l0.229 0.844c0.154-0.905 0.229-2.299 0.224-4.235-0.014-1.963-0.107-5.125-0.28-7.345-0.191-2.225-0.438-4.146-0.793-5.871-0.149 0.018-0.298 0.038-0.452 0.056z"></path>
<path fill="#ffc080" style="fill: var(--color4, #ffc080)" d="M4.355 7.091c0.401 2.103 0.667 3.973 0.849 5.648 0.163 1.67 0.219 3.106 0.168 4.346l0.34 1.073c0.177-1.399 0.196-2.994 0.056-4.855-0.149-1.87-0.438-3.931-0.905-6.272-0.168 0.018-0.336 0.038-0.508 0.061z"></path>
<path fill="#ffc080" style="fill: var(--color4, #ffc080)" d="M8.081 7.823c0.224 2.453 0.368 4.845 0.452 7.285 0.075 2.444 0.051 5.065 0 7.233-0.070 2.145-0.196 3.955-0.396 5.536l0.173 0.788c0.28-1.478 0.48-3.26 0.62-5.419 0.135-2.173 0.215-4.743 0.168-7.457-0.070-2.714-0.252-5.578-0.564-8.698-0.149 0.242-0.298 0.484-0.452 0.732z"></path>
<path fill="#ffc080" style="fill: var(--color4, #ffc080)" d="M10.455 13.471c0.093 0.639 0.112 1.781 0.056 3.502-0.079 1.721-0.247 4.598-0.396 6.725-0.145 2.117-0.294 4.039-0.448 5.871l0.62-1.917c0.434-3.917 0.69-7.014 0.788-9.434 0.089-2.416 0.014-4.043-0.224-4.971-0.023-0.28-0.079-0.462-0.168-0.564-0.098-0.107-0.224-0.126-0.396-0.056 0.056 0.281 0.112 0.561 0.168 0.846z"></path>
<path fill="#ffc080" style="fill: var(--color4, #ffc080)" d="M9.55 11.548c-0.769 0.201-1.637 0.233-2.653 0.061-1.012-0.177-2.136-0.522-3.39-1.073l0.228 0.616c0.574 0.289 1.227 0.499 1.977 0.681 0.751 0.159 1.753 0.308 2.486 0.34 0.709 0.023 1.311-0.028 1.805-0.173-0.149-0.15-0.298-0.299-0.452-0.453z"></path>
<path fill="#ffc080" style="fill: var(--color4, #ffc080)" d="M4.131 12.682c1.105 0.294 2.211 0.494 3.386 0.62 1.17 0.116 2.327 0.154 3.558 0.112l0.116 0.397c-0.984 0.070-2.052 0.051-3.222-0.056-1.185-0.116-2.42-0.317-3.782-0.62-0.019-0.149-0.037-0.298-0.056-0.452z"></path>
<path fill="#ffc080" style="fill: var(--color4, #ffc080)" d="M4.639 14.66c1.012 0.229 2.066 0.378 3.218 0.448 1.138 0.061 2.336 0.042 3.614-0.056v0.34c-0.933 0.116-1.949 0.154-3.106 0.112-1.161-0.051-2.406-0.177-3.787-0.396 0.019-0.15 0.037-0.299 0.061-0.448z"></path>
<path fill="#ffc080" style="fill: var(--color4, #ffc080)" d="M4.975 16.409c0.424 0.247 1.129 0.392 2.201 0.452 1.073 0.051 2.406 0.014 4.127-0.112l0.056 0.397c-1.879 0.224-3.311 0.294-4.351 0.28-1.045-0.033-1.66-0.177-1.865-0.452-0.056-0.188-0.112-0.374-0.168-0.565z"></path>
<path fill="#ffc080" style="fill: var(--color4, #ffc080)" d="M5.712 18.554c0.49 0.159 1.161 0.289 2.089 0.34 0.923 0.051 2.029 0.051 3.39 0v0.508c-0.643 0.163-1.399 0.219-2.318 0.168-0.923-0.061-1.959-0.224-3.162-0.508v-0.509z"></path>
<path fill="#ffc080" style="fill: var(--color4, #ffc080)" d="M6.276 20.983c0.289 0.131 0.723 0.238 1.301 0.34 0.578 0.098 1.394 0.196 2.145 0.224 0.737 0.005 1.483-0.051 2.257-0.168l-0.112 0.452c-0.867 0.135-1.735 0.191-2.654 0.168-0.923-0.033-1.847-0.14-2.826-0.34-0.037-0.224-0.075-0.447-0.112-0.676z"></path>
<path fill="#ffc080" style="fill: var(--color4, #ffc080)" d="M7.008 23.58c0.457 0.252 1.035 0.396 1.753 0.452 0.718 0.047 1.553-0.009 2.542-0.168l-0.284 0.564h-0c-1.007 0.173-1.805 0.261-2.43 0.229-0.629-0.023-1.049-0.168-1.296-0.397-0.084-0.233-0.117-0.34-0.117-0.34 0.009-0.009 0.126 0.392 0.117 0.34-0.033-0.053-0.121-0.286-0.284-0.679z"></path>
<path fill="#ffc080" style="fill: var(--color4, #ffc080)" d="M7.913 26.692c0.261 0.028 0.583 0.051 1.017 0.051 0.42 0 0.928-0.023 1.525-0.051l-0.168 0.564c-0.69 0.051-1.217 0.070-1.581 0.056-0.378-0.023-0.574-0.075-0.625-0.173-0.056-0.15-0.112-0.299-0.168-0.448z"></path>
<path fill="#ffc080" style="fill: var(--color4, #ffc080)" d="M9.694 10.985c0.112 0.126 0.592-0.019 1.478-0.434 0.891-0.434 2.131-1.105 3.796-2.085l-0.196 0.672c-1.628 0.877-2.803 1.474-3.6 1.865-0.797 0.368-1.161 0.513-1.129 0.396-0.117-0.135-0.233-0.275-0.35-0.415z"></path>
<path fill="#ffc080" style="fill: var(--color4, #ffc080)" d="M11.812 15.937c0.392-0.14 0.732-0.284 1.072-0.452 0.336-0.177 0.62-0.359 0.905-0.564l-0.452 0.905c-0.424 0.228-0.751 0.392-1.017 0.508-0.266 0.107-0.448 0.163-0.564 0.168 0.019-0.185 0.038-0.372 0.056-0.563z"></path>
<path fill="#ffc080" style="fill: var(--color4, #ffc080)" d="M9.779 7.202c0.308 0.909 0.648 1.889 1.072 2.994 0.42 1.101 0.975 2.616 1.413 3.558 0.429 0.924 0.793 1.576 1.128 1.977l0.224-0.625c-0.662-1.063-1.264-2.22-1.805-3.558-0.55-1.338-1.040-2.789-1.469-4.402-0.186 0.017-0.373 0.036-0.564 0.054z"></path>
<path fill="#ffc080" style="fill: var(--color4, #ffc080)" d="M11.672 7.184c0.019 0.201 0.201 0.816 0.564 1.865 0.354 1.049 0.891 2.509 1.59 4.416l0.2-0.751c-0.602-1.357-1.054-2.462-1.338-3.386-0.294-0.928-0.42-1.6-0.397-2.089-0.206-0.017-0.411-0.036-0.621-0.054z"></path>
<path fill="#ffc080" style="fill: var(--color4, #ffc080)" d="M10.995 12.561c0.079-0.037 0.438-0.214 1.059-0.55 0.625-0.34 1.511-0.821 2.677-1.46l-0.196 0.672c-1.059 0.536-1.865 0.956-2.458 1.278s-0.947 0.508-1.082 0.611c0-0.181 0-0.363 0-0.549z"></path>
<path fill="#ffc080" style="fill: var(--color4, #ffc080)" d="M11.387 14.37c0.224-0.103 0.578-0.28 1.063-0.55 0.48-0.275 1.077-0.63 1.81-1.063l-0.275 0.751c-0.583 0.298-1.082 0.559-1.516 0.802-0.438 0.229-0.793 0.438-1.082 0.611 0.001-0.181 0.001-0.364 0.001-0.551z"></path>
<path fill="#000" style="fill: var(--color5, #000)" d="M2.284 7.048l0.373 0.984 0.065 0.648 0.238 0.303 0.378 1.46c0 0.327 0.005 0.564 0.065 0.714 0.047 0.14 0.126 0.21 0.238 0.173l0.303 1.185c-0.056 0.163-0.089 0.275-0.098 0.373-0.014 0.089-0.009 0.098 0.033 0.173 0.033 0.061 0.084 0.135 0.173 0.205l0.368 1.255c-0.098 0.163-0.149 0.275-0.135 0.373 0 0.084 0.112 0.112 0.173 0.173l0.168 0.168 0.271 1.087c-0.079 0.047-0.112 0.149-0.098 0.27 0.009 0.126 0.107 0.35 0.168 0.476 0.042 0.107 0.093 0.182 0.135 0.205l0.443 1.357c-0.028 0.107-0.047 0.21-0.037 0.308 0 0.093 0.023 0.201 0.070 0.271 0.037 0.056 0.093 0.089 0.168 0.098l0.308 1.562c-0.019-0.117-0.019-0.117 0 0 0.009 0.121 0.037 0.499 0.103 0.681 0.051 0.163 0.159 0.266 0.271 0.308l0.34 1.665c-0.145 0.089-0.196 0.201-0.135 0.336 0.051 0.135 0.215 0.294 0.471 0.476l0.476 2.206c-0.075 0.065-0.103 0.168-0.065 0.308 0.028 0.14 0.107 0.303 0.238 0.508-0.023-0.219 0.033-0.037 0.168 0.546 0.145 0.578 0.457 2.253 0.648 2.919 0.159 0.648 0.219 0.858 0.383 0.989 0.158 0.117 0.345 0.48 0.629-0.275 0.284-0.779 0.723-3.111 1.026-4.277 0.284-1.171 0.504-2.029 0.676-2.649 0.126-0.103 0.205-0.233 0.238-0.443s0.005-0.471-0.065-0.783c0.177-0.676 0.317-1.157 0.438-1.46 0.112-0.298 0.191-0.196 0.238-0.34 0.037-0.163 0.056-0.359 0.037-0.606 0.28-0.844 0.522-1.665 0.746-2.481 0.215-0.821 0.443-2.015 0.541-2.411 0.089-0.41 0.089-0.41 0 0 0.089 0.009 0.168-0.098 0.238-0.34 0.061-0.257 0.135-0.882 0.173-1.119 0.023-0.238 0.023-0.34 0-0.308l0.238-0.849c0.089-0.145 0.168-0.354 0.275-0.63 0.098-0.289 0.252-0.811 0.317-1.063 0.051-0.271 0.051-0.429 0-0.513l1.138-4.314h-0.34c-0.135 0.326-0.271 0.779-0.443 1.427-0.168 0.634-0.275 1.115-0.574 2.378-0.341 1.264-0.807 3.092-1.325 5.125-0.513 2.019-1.217 5.018-1.698 6.93-0.494 1.893-0.826 3.148-1.227 4.412-0.415 1.25-0.863 3.059-1.199 3.092-0.345 0.005-0.336-1.31-0.802-2.957-0.48-1.67-1.46-4.771-2.005-6.893-0.546-2.127-0.658-3.493-1.255-5.736-0.62-2.252-1.394-4.776-2.378-7.676-0.098-0.003-0.2-0.003-0.303-0.003z"></path>
<path fill="#ffc080" style="fill: var(--color4, #ffc080)" d="M2.886 8.047c0.247 0.135 0.825 0.28 1.754 0.452 0.923 0.173 2.178 0.35 3.782 0.569l0.112 0.56c-1.18-0.135-2.192-0.266-3.106-0.392s-1.674-0.275-2.318-0.397c-0.075-0.262-0.149-0.527-0.224-0.793z"></path>
<path fill="#ffc080" style="fill: var(--color4, #ffc080)" d="M9.102 9.371c0.443-0.061 1.119-0.247 2.047-0.63 0.933-0.378 2.075-0.909 3.502-1.614l0.513 0.042c-1.073 0.602-2.085 1.105-3.111 1.567-1.031 0.443-2.005 0.825-2.994 1.129 0.014-0.162 0.029-0.325 0.043-0.494z"></path>
<path fill="#ffc080" style="fill: var(--color4, #ffc080)" d="M13.407 7.105c0.173 0.555 0.354 1.171 0.564 1.865 0.21 0.69 0.424 1.422 0.681 2.252l0.238-1.026c-0.182-0.135-0.322-0.438-0.471-0.947s-0.28-1.199-0.392-2.089c-0.207-0.019-0.412-0.038-0.622-0.056z"></path>
<path fill="#000" style="fill: var(--color5, #000)" d="M8.674 3.626l0.583-0.032c-0.099-0.29-0.161-0.545-0.177-0.806-0.015-0.271 0.108-0.489 0.069-0.735-0.037-0.252-0.456-0.466-0.312-0.72 0.149-0.268 0.817-0.718 1.171-0.836 0.352-0.124 0.586 0.126 0.908 0.115 0.319-0.029 0.504-0.23 1.014-0.22 0.524 0.003 1.298-0.216 2.055 0.27 0.748 0.478 2.008 1.802 2.425 2.603 0.408 0.789 0.161 1.582 0.055 2.12-0.104 0.524-0.321 0.866-0.668 1.026 0.165 0.468 0.242 0.838 0.229 1.111-0.014 0.264-0.22 0.316-0.307 0.516-0.077 0.202-0.024 0.407-0.181 0.675-0.168 0.255-0.517 0.756-0.789 0.836-0.266 0.056-0.586-0.037-0.804-0.448-0.216-0.417-0.384-1.082-0.495-2.019-0.729 0.128-1.252 0.149-1.567 0.081-0.316-0.084-0.080-0.405-0.33-0.518-0.259-0.121-0.806-0.052-1.194-0.164-0.389-0.128-0.733-0.414-1.092-0.533-0.356-0.125-0.908-0.029-1.018-0.177-0.104-0.166 0.020-0.403 0.385-0.757-0.315-0.293-0.471-0.551-0.462-0.78 0.002-0.236 0.18-0.434 0.504-0.608z"></path>
<path fill="#f0d4a8" style="fill: var(--color6, #f0d4a8)" d="M9.425 3.632c-0.079-0.248-0.143-0.506-0.158-0.789-0.018-0.289 0.088-0.675 0.040-0.903-0.056-0.235-0.411-0.261-0.35-0.458 0.060-0.205 0.487-0.592 0.741-0.725 0.254-0.14 0.581-0.077 0.807-0.076 0.225-0.007 0.292 0.085 0.55 0.058 0.252-0.045 0.563-0.218 0.984-0.248 0.431-0.036 1.088-0.086 1.569 0.096 0.485 0.185 0.888 0.623 1.275 0.999 0.384 0.366 0.739 0.848 0.999 1.193 0.245 0.327 0.46 0.423 0.532 0.802 0.085 0.378 0.010 1.039-0.034 1.434-0.045 0.379-0.095 0.653-0.257 0.859-0.175 0.194-0.445 0.339-0.743 0.329-0.293-0.020-0.868-0.39-1.001-0.411-0.131-0.019-0.015 0.13 0.2 0.282 0.216 0.133 0.86 0.289 1.071 0.534 0.203 0.237 0.204 0.655 0.177 0.888-0.028 0.212-0.235 0.251-0.311 0.419-0.064 0.159-0.044 0.365-0.12 0.571-0.089 0.194-0.201 0.477-0.386 0.623-0.187 0.136-0.485 0.391-0.698 0.195-0.205-0.209-0.416-0.987-0.539-1.392-0.12-0.411-0.189-0.739-0.199-1.025-0.754 0.116-1.275 0.14-1.578 0.071-0.303-0.073 0.062-0.368-0.233-0.488-0.304-0.135-1.131-0.156-1.55-0.273-0.419-0.129-0.655-0.373-0.952-0.448-0.292-0.085-0.736 0.075-0.807-0.042-0.070-0.127 0.052-0.365 0.375-0.707-0.27-0.241-0.427-0.451-0.479-0.64-0.051-0.199-0.008-0.385 0.17-0.506 0.184-0.119 0.473-0.2 0.906-0.222z"></path>
<path fill="#000" style="fill: var(--color5, #000)" d="M12.82 3.577c-0.202-0.277-0.627-0.887-1.001-1.188-0.376-0.33-0.782-0.638-0.951 0.167-0.036 0.289 0.502 0.552 0.504 0.72 0.008 0.797-0.421 0.688-0.547 0.909-0.239 0.418 0.437 0.106 0.869-0.782 0.125-0.257-0.584-0.81-0.337-1.1 0.669 0.22 1.337 1.531 1.652 1.7 0.318 0.17 0.014-0.151-0.188-0.425z"></path>
<path fill="#000" style="fill: var(--color5, #000)" d="M15.159 3.222c-0.231-0.072-0.643-0.405-0.807-0.588-0.155-0.168 0.133-0.262-0.145-0.435-0.293-0.152-1.312-0.397-1.562-0.527-0.248-0.128 0.216-0.080 0.087-0.244-0.14-0.153-0.908-0.694-0.859-0.701 0.066 0.010 0.744 0.482 1.214 0.707 0.469 0.233 1.228 0.431 1.543 0.636 0.3 0.214 0.084 0.438 0.263 0.602 0.184 0.177 0.748 0.312 0.799 0.402 0.037 0.102-0.307 0.226-0.534 0.148z"></path>
<path fill="#000" style="fill: var(--color5, #000)" d="M14.812 4.939c0.272-0.088 0.959-0.080 1.153 0.048 0.185 0.116 0.078 0.512-0.021 0.683-0.089 0.164-0.287 0.312-0.548 0.295-0.271-0.031-0.951-0.318-1.053-0.478-0.096-0.178 0.195-0.468 0.469-0.547z"></path>
<path fill="#000" style="fill: var(--color5, #000)" d="M5.932 7.273c-0.523 0.057-0.958 0.19-1.305 0.4-0.361 0.213-0.434 0.665-0.799 0.853-0.375 0.189-0.802 0.293-1.41 0.242-0.622-0.059-2.033-0.245-2.264-0.603-0.23-0.363 0.051-0.872 0.873-1.55-0.58-0.127-0.912-0.512-0.984-1.165-0.074-0.671-0.125-1.857 0.525-2.739 0.639-0.866 2.306-1.992 3.299-2.434 0.974-0.435 1.901-0.239 2.552-0.188 0.639 0.041 1.058 0.188 1.275 0.443 0.236-0.292 0.442-0.415 0.62-0.369 0.167 0.042 0.307 0.255 0.412 0.629 0.649-0.117 1.042 0.087 1.199 0.578 0.152 0.503 0.049 1.29-0.289 2.403-0.369 0.077-0.755 0.267-1.171 0.61-0.437 0.336-1.009 1.027-1.327 1.403-0.314 0.377-0.324 0.594-0.521 0.84-0.208 0.25-0.427 0.458-0.686 0.646z"></path>
<path fill="#ffabbc" style="fill: var(--color7, #ffabbc)" d="M1.299 6.535c-0.238 0.128-0.433 0.301-0.602 0.517-0.178 0.215-0.414 0.59-0.414 0.787-0.007 0.206-0.031 0.257 0.402 0.401 0.425 0.134 1.608 0.421 2.167 0.395 0.551-0.031 0.829-0.369 1.13-0.558 0.284-0.184 0.281-0.399 0.609-0.554 0.325-0.157 0.978-0.21 1.323-0.403 0.327-0.19 0.424-0.452 0.664-0.759 0.223-0.317 0.4-0.713 0.736-1.103 0.333-0.392 0.874-0.912 1.262-1.186 0.379-0.259 0.701-0.402 1.002-0.399 0.195-0.674 0.291-1.222 0.291-1.664-0.006-0.448-0.104-0.773-0.296-0.957-0.199-0.178-0.488-0.215-0.884-0.112-0.048-0.186-0.128-0.333-0.214-0.427-0.092-0.097-0.213-0.191-0.33-0.158-0.138 0.030-0.372 0.179-0.409 0.337s0.189 0.411 0.218 0.617c0.018 0.203-0.018 0.704-0.077 0.613-0.072-0.097-0.18-0.915-0.32-1.179-0.145-0.264-0.142-0.31-0.538-0.408-0.411-0.106-1.275-0.242-1.886-0.187-0.624 0.058-1.084 0.155-1.799 0.549-0.732 0.407-1.95 1.078-2.492 1.827-0.541 0.745-0.787 1.92-0.705 2.6 0.074 0.675 0.461 1.131 1.162 1.411z"></path>
<path fill="#000" style="fill: var(--color5, #000)" d="M5.547 6.83c-0.331 0.111-1.535 0.073-1.821 0.195-0.286 0.127 0.258 0.392 0.123 0.542-0.159 0.149-0.55 0.303-1.003 0.313-0.464 0.006-1.634-0.208-1.671-0.281-0.037-0.082 1.282-0.019 1.466-0.196 0.165-0.181-0.939-0.668-0.434-0.852 0.503-0.172 2.855-0.264 3.43-0.209 0.547 0.044 0.226 0.378-0.089 0.488z"></path>
<path fill="#000" style="fill: var(--color5, #000)" d="M3.518 2.062c0.089-0.287 0.718-1.042 1.15-1.323 0.422-0.285 0.945-0.342 1.359-0.356 0.399-0.014 0.784 0.030 1.045 0.281 0.244 0.25 0.321 0.934 0.476 1.206 0.149 0.265 0.466-0.039 0.435 0.403-0.054 0.452-0.56 2.238-0.698 2.264 0.058-0.377 0.745-3.295-0.146-2.179-0.823 0.566 0.609-1.703-0.871-1.851-0.265-0.186-1.063 0.307-1.488 0.442-0.827 0.262-1.249 1.427-0.638 1.503-0.261 0.13-0.713-0.105-0.624-0.387z"></path>
<path fill="#000" style="fill: var(--color5, #000)" d="M8.578 1.225c0.186-0.119 0.871-0.051 1.021 0.225 0.14 0.272 0 1.017-0.149 1.398-0.168 0.377-0.653 0.813-0.806 0.859-0.153 0.041 0.101-0.099 0.194-0.373 1.161-0.76 0.779-2.095-0.022-1.896-0.023-0.159-0.258 0.862-0.347 0.719-0.095-0.147-0.081-0.815 0.109-0.934z"></path>
<path fill="#000" style="fill: var(--color5, #000)" d="M2.543 4.169c-0.202 0.36-0.72 1.694-0.644 1.626 0.079-0.090 0.987-1.821 1.113-2.102 0.105-0.268-0.294 0.117-0.469 0.476z"></path>
<path fill="#000" style="fill: var(--color5, #000)" d="M3.737 3.588c-0.154 0.326-0.52 1.548-0.446 1.466 0.072-0.084 0.788-1.708 0.875-1.954 0.065-0.233-0.285 0.149-0.429 0.487z"></path>
<path fill="#000" style="fill: var(--color5, #000)" d="M5.1 2.961c-0.088 0.254-0.13 1.548-0.050 1.545 0.072-0.013 0.472-1.278 0.489-1.547 0.001-0.254-0.359-0.261-0.439 0.003z"></path>
<path fill="#000" style="fill: var(--color5, #000)" d="M9.597 2.994c0.553 0.314 1.071 0.484 1.552 0.509 0.497 0.032 0.869-0.397 1.354-0.336 0.492 0.068 0.993 0.263 1.554 0.752 0.578 0.508 1.835 1.718 1.828 2.265-0.014 0.551-0.632 0.892-1.885 1.025 0.488 0.551 0.559 1.199 0.197 1.946-0.368 0.767-1.116 2.068-2.338 2.541-1.204 0.464-3.596 0.469-4.867 0.229-1.249-0.234-2.033-1.108-2.641-1.629-0.603-0.502-0.919-0.959-0.963-1.386-0.433 0.143-0.715 0.125-0.86-0.050-0.137-0.164-0.137-0.491 0.015-0.966-0.706-0.342-0.977-0.838-0.796-1.475 0.188-0.645 0.8-1.408 1.875-2.352 0.415 0.182 0.922 0.257 1.56 0.189 0.654-0.045 1.676-0.37 2.24-0.543 0.545-0.175 0.721-0.401 1.068-0.521 0.369-0.117 0.734-0.183 1.109-0.197z"></path>
<path fill="#fff6d5" style="fill: var(--color8, #fff6d5)" d="M13.675 7.1c0.316 0.034 0.634-0.011 0.94-0.12 0.321-0.102 0.793-0.331 0.926-0.541 0.144-0.215 0.2-0.251-0.131-0.715-0.337-0.447-1.299-1.602-1.871-1.974-0.564-0.357-1.062-0.198-1.484-0.211-0.41-0.007-0.542 0.223-0.971 0.154-0.429-0.065-1.096-0.474-1.568-0.524-0.46-0.031-0.708 0.177-1.162 0.333-0.431 0.178-0.868 0.473-1.457 0.648-0.575 0.178-1.475 0.346-2.027 0.359-0.545 0.016-0.958-0.086-1.253-0.29-0.643 0.578-1.094 1.097-1.394 1.56-0.292 0.482-0.411 0.898-0.343 1.232 0.078 0.333 0.343 0.578 0.794 0.753-0.072 0.233-0.084 0.445-0.065 0.607 0.026 0.169 0.087 0.356 0.216 0.405 0.156 0.067 0.485 0.077 0.627-0.066 0.138-0.139 0.093-0.582 0.198-0.817 0.117-0.233 0.489-0.729 0.48-0.593 0.007 0.159-0.43 1.095-0.466 1.481-0.032 0.389-0.065 0.444 0.26 0.828 0.335 0.412 1.095 1.164 1.734 1.547 0.658 0.386 1.164 0.612 2.134 0.705 0.988 0.092 2.645 0.249 3.672-0.16 1.028-0.406 2.050-1.481 2.42-2.264 0.373-0.772 0.294-1.535-0.211-2.335z"></path>
<path fill="#000" style="fill: var(--color5, #000)" d="M9.682 3.741c0.595-0.347 1.837 0.368 1.925 1.097 0.367 0.070 0.006-0.603 0.238-0.665 0.255-0.045 0.743 0.072 1.197 0.386 0.462 0.326 1.473 1.393 1.462 1.497-0.018 0.113-1.276-0.898-1.575-0.842-0.505-0.714-0.691-1.285-0.884 0.067-1.479-2.134-2.413-0.994-2.774-1.084-0.51-0.437 0.027-0.564 0.411-0.456z"></path>
<path fill="#000" style="fill: var(--color5, #000)" d="M8.52 10.274c-0.278 0.242-1.398 0.595-2.012 0.585-0.598 0-1.158-0.313-1.573-0.595-0.395-0.271-0.761-0.593-0.848-1.048-0.075-0.441 0.303-1.225 0.331-1.626 0.028-0.389-0.485-0.292-0.162-0.741 0.353-0.443 2.037-1.982 2.19-1.911 0.143 0.096-1.791 1.462-1.906 1.926-0.086 0.465 0.279-0.006 0.263 0.29-0.014 0.328-0.302 1.593-0.194 1.983 0.138 0.388 1.352 1.189 1.846 1.4 1.145 0.489 1.993-0.692 1.706-1.124 0.342 0.048 0.632 0.623 0.357 0.86z"></path>
<path fill="#000" style="fill: var(--color5, #000)" d="M2.975 7.539c-0.262-0.007-0.892-0.57-0.857-0.972 0.051-0.391 0.663-1.082 1.075-1.382 0.412-0.28 1.19-0.399 1.368-0.338 0.182 0.065-1.031 0.414-1.299 0.639-1.004 0.287-0.875 1.68 0.084 1.56-0.002 0.223-0.103 0.504-0.371 0.493z"></path>
<path fill="#000" style="fill: var(--color5, #000)" d="M10.879 8.729c0.438-0.239 1.834-1.288 1.713-1.27-0.138 0.039-2.181 1.232-2.492 1.441-0.281 0.21 0.368 0.086 0.778-0.17z"></path>
<path fill="#000" style="fill: var(--color5, #000)" d="M9.316 8.492c0.367-0.237 1.54-1.276 1.413-1.242-0.127 0.038-1.91 1.255-2.158 1.454-0.219 0.201 0.38 0.045 0.746-0.212z"></path>
<path fill="#000" style="fill: var(--color5, #000)" d="M7.556 8.183c0.263-0.209 1.144-1.556 1.074-1.61-0.084-0.037-1.306 1.022-1.505 1.298-0.17 0.269 0.185 0.535 0.431 0.312z"></path>
</symbol>

<symbol id="double_arrow" viewBox="0 0 24 24">
<path d="M8.484 5.016l5.016 6.984-5.016 6.984h-4.5l5.016-6.984-5.016-6.984h4.5zM15.516 5.016l4.969 6.984-4.969 6.984h-4.5l4.969-6.984-4.969-6.984h4.5z"></path>
</symbol>


<symbol id="quote" viewBox="0 0 43 32">
    <path d="M32.014 0c1.929 0 3.75 0.52 5.464 1.561s3.107 2.537 4.179 4.488c1.029 1.951 1.543 4.249 1.543 6.894s-0.643 5.225-1.929 7.74c-0.429 0.911-1.2 2.081-2.314 3.512-1.157 1.431-2.229 2.667-3.214 3.707l-4.050 4.098-2.893-4.813c2.014-1.257 3.793-2.818 5.336-4.683 1.543-1.821 2.314-3.491 2.314-5.008 0-0.78-0.171-1.409-0.514-1.886-1.5 1.084-3.171 1.626-5.014 1.626-1.329 0-2.593-0.412-3.793-1.236-1.243-0.78-2.229-1.821-2.957-3.122-0.771-1.258-1.157-2.558-1.157-3.902 0-1.518 0.45-2.97 1.35-4.358 0.857-1.388 1.993-2.515 3.407-3.382 1.371-0.824 2.786-1.236 4.243-1.236zM8.936 0c1.929 0 3.75 0.52 5.464 1.561s3.107 2.537 4.179 4.488c1.029 1.951 1.543 4.249 1.543 6.894 0 1.864-0.236 3.534-0.707 5.008-0.471 1.518-1.286 3.1-2.443 4.748-1.114 1.561-2.164 2.862-3.15 3.902-0.986 1.084-2.7 2.884-5.143 5.398l-2.893-4.813c2.014-1.257 3.793-2.818 5.336-4.683 1.543-1.821 2.314-3.491 2.314-5.008 0-0.78-0.171-1.409-0.514-1.886-1.5 1.084-3.171 1.626-5.014 1.626-1.329 0-2.593-0.412-3.793-1.236-1.243-0.78-2.229-1.821-2.957-3.122-0.771-1.258-1.157-2.558-1.157-3.902 0-1.518 0.429-2.97 1.286-4.358s1.993-2.515 3.407-3.382c1.371-0.824 2.786-1.236 4.243-1.236z"></path>
</symbol>

</defs>
</svg>
